#!OML:ASF G:\JayActor3\Patient Classification 1\Patient 1\Session 5\male.ASF
:FULLY-SPECIFIED
:DEGREES
674
root 0.874265 16.9421 18.4817 -2.23829 -150.981 4.9655
lowerback 2.2915 -0.288497 2.30066
upperback 1.2537 -0.36342 -0.739763
thorax -0.0181036 -0.178399 -2.03996
lowerneck 1.90213 -2.45802 -1.98714
upperneck 3.34338 -3.69541 7.6364
head 0.919952 -1.899 2.75854
rclavicle 4.47266e-014 1.66979e-014
rhumerus -33.0579 -12.6081 -84.8469
rradius 18.0136
rwrist 18.4773
rhand -17.5481 -6.02172
rfingers 7.12502
rthumb 8.70646 -35.8222
lclavicle 4.47266e-014 1.66979e-014
lhumerus -57.7086 52.8955 39.9809
lradius 7.73244
lwrist -30.5329
lhand -23.2851 13.1292
lfingers 7.12502
lthumb 3.16778 43.0854
rfemur -12.0034 9.23091 27.5581
rtibia 35.4263
rfoot -25.4696 -16.8451
rtoes -7.66891
lfemur -2.97209 5.28525 -17.0146
ltibia 22.2549
lfoot -20.2035 7.44179
ltoes -2.19181
675
root 0.856394 16.9446 18.4649 -2.33618 -151.901 5.05938
lowerback 2.18507 -0.267393 2.40968
upperback 1.27693 -0.335816 -0.687073
thorax 0.0665359 -0.162883 -2.04829
lowerneck 1.81325 -2.27463 -1.82365
upperneck 3.62156 -3.4652 7.46398
head 1.00392 -1.7784 2.67004
rclavicle -7.57867e-014 -1.11319e-014
rhumerus -33.1421 -13.1266 -84.4282
rradius 17.7618
rwrist 19.1052
rhand -17.8593 -5.94188
rfingers 7.12502
rthumb 8.4061 -35.7546
lclavicle -7.57867e-014 -1.11319e-014
lhumerus -58.2465 53.1418 39.3599
lradius 7.67737
lwrist -31.0217
lhand -23.4148 13.1503
lfingers 7.12502
lthumb 3.04253 43.1083
rfemur -11.8059 9.34515 27.6707
rtibia 35.2731
rfoot -24.892 -16.2265
rtoes -5.99343
lfemur -2.66701 5.31651 -16.9341
ltibia 22.252
lfoot -19.7836 7.96455
ltoes -1.34563
676
root 0.839544 16.9471 18.4455 -2.41615 -152.704 5.16299
lowerback 2.02713 -0.251584 2.52017
upperback 1.30525 -0.3169 -0.633999
thorax 0.184833 -0.151058 -2.05702
lowerneck 1.68206 -2.12264 -1.66492
upperneck 3.90088 -3.27812 7.31327
head 1.09916 -1.67852 2.58977
rclavicle 2.40032e-014 8.74653e-015
rhumerus -33.2532 -13.5933 -84.0587
rradius 17.543
rwrist 19.6346
rhand -18.1088 -5.87284
rfingers 7.12502
rthumb 8.16532 -35.6951
lclavicle 2.40032e-014 8.74653e-015
lhumerus -58.6575 53.3448 38.8814
lradius 7.64338
lwrist -31.4756
lhand -23.5779 13.1089
lfingers 7.12502
lthumb 2.88499 43.0692
rfemur -11.5981 9.78086 27.8639
rtibia 35.1234
rfoot -24.3571 -15.9977
rtoes -4.1852
lfemur -2.40204 5.1602 -16.8684
ltibia 22.2755
lfoot -19.53 8.62693
ltoes -1.06327
677
root 0.824361 16.9494 18.4239 -2.47622 -153.396 5.28068
lowerback 1.81141 -0.236205 2.65618
upperback 1.34534 -0.300501 -0.592989
thorax 0.347334 -0.139413 -2.09261
lowerneck 1.52347 -2.00551 -1.52371
upperneck 4.14367 -3.1371 7.20677
head 1.19177 -1.60156 2.52772
rclavicle -2.96189e-014 8.74653e-015
rhumerus -33.375 -14.0417 -83.7477
rradius 17.3474
rwrist 20.0472
rhand -18.2834 -5.88124
rfingers 7.12502
rthumb 7.99683 -35.71
lclavicle -2.96189e-014 8.74653e-015
lhumerus -58.8942 53.49 38.551
lradius 7.62528
lwrist -31.8786
lhand -23.7317 12.9947
lfingers 7.12502
lthumb 2.73646 42.9569
rfemur -11.3878 10.46 28.1256
rtibia 34.9767
rfoot -23.914 -16.0953
rtoes -2.41257
lfemur -2.19699 4.85984 -16.8041
ltibia 22.3487
lfoot -19.4151 9.37304
ltoes -1.31583
678
root 0.811382 16.9513 18.4009 -2.5071 -153.981 5.40255
lowerback 1.55174 -0.217002 2.81079
upperback 1.39014 -0.280901 -0.56879
thorax 0.539453 -0.125188 -2.15604
lowerneck 1.35624 -1.92608 -1.3918
upperneck 4.32505 -3.04371 7.13825
head 1.27007 -1.54874 2.48014
rclavicle -2.23633e-014 -3.97569e-015
rhumerus -33.5087 -14.5157 -83.4759
rradius 17.159
rwrist 20.3737
rhand -18.3384 -5.91218
rfingers 7.12502
rthumb 7.94376 -35.7429
lclavicle -2.23633e-014 -3.97569e-015
lhumerus -58.9414 53.5762 38.3843
lradius 7.61716
lwrist -32.2166
lhand -23.8011 12.8248
lfingers 7.12502
lthumb 2.66949 42.7879
rfemur -11.1971 11.2628 28.4229
rtibia 34.8368
rfoot -23.5405 -16.4356
rtoes -1.00302
lfemur -2.06798 4.48362 -16.7314
ltibia 22.4771
lfoot -19.4127 10.0513
ltoes -1.69765
679
root 0.80209 16.9532 18.3783 -2.50308 -154.456 5.55818
lowerback 1.27037 -0.204036 2.99827
upperback 1.4223 -0.270611 -0.546473
thorax 0.730293 -0.114998 -2.23971
lowerneck 1.19803 -1.87313 -1.27798
upperneck 4.43506 -2.9811 7.09561
head 1.32665 -1.5121 2.44457
rclavicle -2.92213e-014 -1.98785e-014
rhumerus -33.6499 -15.0892 -83.1946
rradius 16.9486
rwrist 20.7066
rhand -18.2744 -5.95177
rfingers 7.12502
rthumb 8.00551 -35.7802
lclavicle -2.92213e-014 -1.98785e-014
lhumerus -58.8398 53.613 38.3433
lradius 7.62088
lwrist -32.458
lhand -23.7973 12.6049
lfingers 7.12502
lthumb 2.67316 42.5679
rfemur -11.0768 12.0622 28.7553
rtibia 34.7098
rfoot -23.2125 -16.862
rtoes -0.139585
lfemur -2.05132 4.14411 -16.5958
ltibia 22.6524
lfoot -19.4334 10.5467
ltoes -2.10618
680
root 0.796314 16.9555 18.3574 -2.45578 -154.817 5.71902
lowerback 0.994168 -0.20348 3.18435
upperback 1.43263 -0.277304 -0.523707
thorax 0.894895 -0.113468 -2.32195
lowerneck 1.06019 -1.84007 -1.18016
upperneck 4.47513 -2.9391 7.05884
head 1.35887 -1.48675 2.41392
rclavicle 4.27387e-015 5.56597e-015
rhumerus -33.8028 -15.6976 -82.9133
rradius 16.7222
rwrist 20.9913
rhand -18.1429 -6.01298
rfingers 7.12502
rthumb 8.13242 -35.8365
lclavicle 4.27387e-015 5.56597e-015
lhumerus -58.6346 53.6042 38.3975
lradius 7.63363
lwrist -32.5846
lhand -23.698 12.36
lfingers 7.12502
lthumb 2.76899 42.3217
rfemur -11.0417 12.7524 29.0653
rtibia 34.6047
rfoot -22.9808 -17.2041
rtoes 0.436599
lfemur -2.13653 3.90878 -16.4166
ltibia 22.8488
lfoot -19.4328 10.8249
ltoes -2.57316
681
root 0.793033 16.9584 18.3385 -2.36042 -155.07 5.84238
lowerback 0.747487 -0.220537 3.32082
upperback 1.41545 -0.306875 -0.497699
thorax 1.01338 -0.124599 -2.37287
lowerneck 0.958766 -1.81932 -1.10503
upperneck 4.44893 -2.90625 7.00939
head 1.36416 -1.46742 2.38335
rclavicle -5.20319e-014 2.38542e-014
rhumerus -33.9754 -16.3122 -82.6118
rradius 16.4793
rwrist 21.2555
rhand -17.9658 -6.05029
rfingers 7.12502
rthumb 8.3033 -35.8671
lclavicle -5.20319e-014 2.38542e-014
lhumerus -58.3804 53.5618 38.5217
lradius 7.65439
lwrist -32.5905
lhand -23.5259 12.1393
lfingers 7.12502
lthumb 2.93523 42.0989
rfemur -11.0847 13.2728 29.2886
rtibia 34.5296
rfoot -22.8503 -17.3621
rtoes 0.871171
lfemur -2.2894 3.81285 -16.2352
ltibia 23.0318
lfoot -19.4099 10.8644
ltoes -3.03087
682
root 0.79106 16.9619 18.3215 -2.21982 -155.215 5.89632
lowerback 0.54815 -0.259993 3.37447
upperback 1.36888 -0.364391 -0.46889
thorax 1.07351 -0.15174 -2.37435
lowerneck 0.891949 -1.80759 -1.05181
upperneck 4.37957 -2.87914 6.93282
head 1.34972 -1.45217 2.34794
rclavicle 2.62396e-014 2.38542e-014
rhumerus -34.1727 -16.9007 -82.2884
rradius 16.2251
rwrist 21.5074
rhand -17.785 -6.08409
rfingers 7.12502
rthumb 8.47783 -35.8939
lclavicle 2.62396e-014 2.38542e-014
lhumerus -58.1242 53.4955 38.6975
lradius 7.68745
lwrist -32.4857
lhand -23.3516 11.9682
lfingers 7.12502
lthumb 3.10355 41.9254
rfemur -11.1903 13.5717 29.3858
rtibia 34.4885
rfoot -22.7245 -17.3561
rtoes 1.01051
lfemur -2.465 3.85567 -16.0947
ltibia 23.1599
lfoot -19.3466 10.6995
ltoes -3.46702
